<svg width="45" height="45" viewBox="0 0 45 45" fill="none" xmlns="http://www.w3.org/2000/svg">
<g id="Instagram">
<path id="Vector" d="M15 5.625C9.82313 5.625 5.625 9.82313 5.625 15V30C5.625 35.1769 9.82313 39.375 15 39.375H30C35.1769 39.375 39.375 35.1769 39.375 30V15C39.375 9.82313 35.1769 5.625 30 5.625H15ZM33.75 9.375C34.785 9.375 35.625 10.215 35.625 11.25C35.625 12.285 34.785 13.125 33.75 13.125C32.715 13.125 31.875 12.285 31.875 11.25C31.875 10.215 32.715 9.375 33.75 9.375ZM22.5 13.125C27.6769 13.125 31.875 17.3231 31.875 22.5C31.875 27.6769 27.6769 31.875 22.5 31.875C17.3231 31.875 13.125 27.6769 13.125 22.5C13.125 17.3231 17.3231 13.125 22.5 13.125ZM22.5 16.875C21.0082 16.875 19.5774 17.4676 18.5225 18.5225C17.4676 19.5774 16.875 21.0082 16.875 22.5C16.875 23.9918 17.4676 25.4226 18.5225 26.4775C19.5774 27.5324 21.0082 28.125 22.5 28.125C23.9918 28.125 25.4226 27.5324 26.4775 26.4775C27.5324 25.4226 28.125 23.9918 28.125 22.5C28.125 21.0082 27.5324 19.5774 26.4775 18.5225C25.4226 17.4676 23.9918 16.875 22.5 16.875Z" fill="white"/>
</g>
</svg>
