<svg width="45" height="45" viewBox="0 0 45 45" fill="none" xmlns="http://www.w3.org/2000/svg">
<g id="Viber">
<path id="Vector" d="M27.075 1.83789H18.75C10.6125 1.83789 3.75 8.32539 3.75 15.9941V22.5379C3.75 28.8941 5.6625 33.0191 9.6 35.1379V39.4504C9.6 40.9129 10.4813 42.2254 11.8125 42.7879C12.2812 42.9941 12.75 43.0879 13.2375 43.0879C14.1562 43.0879 15.075 42.7316 15.7687 42.0566L21.3188 36.6941H27.075C34.8937 36.6941 41.25 30.3379 41.25 22.5379V15.9941C41.25 8.17539 34.8937 1.83789 27.075 1.83789ZM31.5375 27.5441C31.2562 27.9191 30.9187 28.3316 30.5812 28.7441C29.6062 29.8691 28.0125 30.2816 26.625 29.7004C23.4562 28.4066 19.6687 25.7816 17.2688 23.5691C15.3188 21.7504 12.9938 17.5129 11.6063 14.7754C10.875 13.3129 11.2875 11.5504 12.6 10.5379L13.6875 9.69414C14.475 9.09414 15.6 9.26289 16.1625 10.0691L18.3 13.0879C18.8063 13.8191 18.675 14.8129 17.9813 15.3754L17.4 15.8629C16.8937 16.2941 16.6688 16.9691 16.8188 17.6066C17.1 18.6566 17.85 20.1941 19.2 21.6379C20.8312 23.3816 22.2563 23.9629 23.1375 24.1504C23.7188 24.2629 24.3 24.0379 24.6938 23.6066L25.275 22.9504C25.8562 22.2191 26.9062 22.0691 27.6562 22.6129L31.1625 25.1441C31.95 25.7066 32.1 26.7754 31.5375 27.5441ZM23.4375 15.9004C23.4375 15.3754 23.85 14.9629 24.375 14.9629C26.625 14.9629 28.125 16.4629 28.125 18.7129C28.125 19.2379 27.7125 19.6504 27.1875 19.6504C26.6625 19.6504 26.25 19.2379 26.25 18.7129C26.25 17.5129 25.5938 16.8379 24.375 16.8379C23.85 16.8379 23.4375 16.4254 23.4375 15.9004ZM30.9375 19.6504C30.4125 19.6504 30 19.2379 30 18.7129C30 15.8816 27.2062 13.0879 24.375 13.0879C23.85 13.0879 23.4375 12.6754 23.4375 12.1504C23.4375 11.6254 23.85 11.2129 24.375 11.2129C28.2375 11.2129 31.875 14.8504 31.875 18.7129C31.875 19.2379 31.4625 19.6504 30.9375 19.6504ZM34.6875 19.6504C34.1625 19.6504 33.75 19.2379 33.75 18.7129C33.75 14.2691 29.9062 9.33789 24.375 9.33789C23.85 9.33789 23.4375 8.92539 23.4375 8.40039C23.4375 7.87539 23.85 7.46289 24.375 7.46289C31.0125 7.46289 35.625 13.3879 35.625 18.7129C35.625 19.2379 35.2125 19.6504 34.6875 19.6504Z" fill="white"/>
</g>
</svg>
